<?xml version="1.0" standalone="no"?><!DOCTYPE svg PUBLIC "-//W3C//DTD SVG 1.1//EN" "http://www.w3.org/Graphics/SVG/1.1/DTD/svg11.dtd"><svg t="1707912971502" class="icon" viewBox="0 0 1059 1024" version="1.1" xmlns="http://www.w3.org/2000/svg" p-id="19390" xmlns:xlink="http://www.w3.org/1999/xlink" width="16.546875" height="16"><path d="M1006.342745 388.412989H847.446523V317.792446A317.792446 317.792446 0 0 0 211.861631 317.792446v70.620543H52.965408a52.965408 52.965408 0 0 0 0 105.930816h26.482703l59.67436 467.861101a70.620544 70.620544 0 0 0 70.620543 61.792975h640.175228a70.620544 70.620544 0 0 0 70.620543-61.792975L979.860042 494.343805h26.482703a52.965408 52.965408 0 0 0 0-105.930816zM282.482174 317.792446a247.171902 247.171902 0 0 1 494.343805 0v70.620543H282.482174z m105.930815 529.654077H282.482174v-247.171903h105.930815z m211.861631 0h-105.930815v-247.171903h105.930815z m211.861631 0h-105.930816v-247.171903h105.930816z" p-id="19391"></path></svg>