<?xml version="1.0" standalone="no"?><!DOCTYPE svg PUBLIC "-//W3C//DTD SVG 1.1//EN" "http://www.w3.org/Graphics/SVG/1.1/DTD/svg11.dtd"><svg t="1707913158124" class="icon" viewBox="0 0 1024 1024" version="1.1" xmlns="http://www.w3.org/2000/svg" p-id="27258" xmlns:xlink="http://www.w3.org/1999/xlink" width="16" height="16"><path d="M178.176 442.368q-8.192 1.024-17.408 1.024l-16.384 0q-8.192 0-15.36-1.024-10.24-1.024-19.456-5.12t-17.92-8.704-16.896-8.704-15.36-5.12q-15.36-2.048-29.184-2.048t-15.872 13.312q-3.072 16.384 6.656 22.528t16.896 9.216q11.264 5.12 28.672 22.528t38.912 24.576q10.24 4.096 23.552 5.632t25.6 1.536q14.336 0 28.672-1.024 3.072 34.816 13.312 68.608 8.192 28.672 23.552 60.416t39.936 55.296q25.6 23.552 67.072 34.816t81.408 15.36q47.104 4.096 98.304 3.072 53.248 2.048 102.4-3.072 41.984-4.096 83.456-15.872t65.024-37.376q26.624-29.696 41.984-62.464t22.528-59.392q8.192-31.744 9.216-60.416l63.488 0q7.168 0 15.872-4.096t16.896-9.728 15.872-11.776 11.776-10.24q9.216-7.168 18.432-13.312t20.48-11.264q10.24-4.096 10.24-16.896t-11.264-15.872q-17.408-5.12-37.376-0.512t-37.376 15.872q-8.192 5.12-19.968 7.68t-23.552 3.584-22.528 0.512-16.896-0.512l-32.768 0q-30.72 0-77.312-0.512t-104.96-0.512l-119.808 0-322.56 0zM547.84 225.28q5.12 13.312 6.656 27.648t0.512 25.6q-1.024 14.336-3.072 27.648 18.432 0 38.912 1.024 17.408 1.024 40.96 2.56t50.176 5.632q52.224 7.168 80.896 20.48t43.008 27.648q13.312 13.312 15.36 22.528 1.024 4.096 0 8.192l-650.24 0q-2.048-13.312 14.336-30.72t62.464-34.816q23.552-8.192 56.32-13.312t62.464-7.168q34.816-3.072 72.704-3.072-2.048-14.336-2.048-28.672 0-12.288 1.536-26.112t7.68-25.088q5.12-11.264 13.824-17.408t16.896-8.192q9.216-3.072 18.432-3.072 17.408-1.024 31.744 5.632t20.48 23.04zM495.616 229.376q-10.24 0-17.408 7.168t-7.168 18.432q0 10.24 7.168 17.408t17.408 7.168q11.264 0 18.432-7.168t7.168-17.408q0-11.264-7.168-18.432t-18.432-7.168z" fill="#333333" p-id="27259"></path></svg>