<?xml version="1.0" standalone="no"?><!DOCTYPE svg PUBLIC "-//W3C//DTD SVG 1.1//EN" "http://www.w3.org/Graphics/SVG/1.1/DTD/svg11.dtd"><svg t="1707912585167" class="icon" viewBox="0 0 1024 1024" version="1.1" xmlns="http://www.w3.org/2000/svg" p-id="14712" xmlns:xlink="http://www.w3.org/1999/xlink" width="16" height="16"><path d="M512 5.12C793.6 5.12 1018.88 230.4 1018.88 512S791.04 1018.88 512 1018.88 5.12 793.6 5.12 512 230.4 5.12 512 5.12zM512 76.8C271.36 76.8 76.8 271.36 76.8 512s194.56 435.2 435.2 435.2 435.2-194.56 435.2-435.2S752.64 76.8 512 76.8z m0 156.16c17.92 0 33.28 12.8 35.84 30.72v243.2c0 2.56 2.56 5.12 2.56 7.68l2.56 2.56 143.36 81.92c17.92 10.24 23.04 33.28 12.8 48.64-10.24 15.36-28.16 23.04-46.08 15.36l-5.12-2.56-143.36-81.92c-23.04-12.8-40.96-38.4-43.52-66.56V266.24c5.12-15.36 20.48-33.28 40.96-33.28z" fill="#1A1A1A" p-id="14713"></path></svg>