<?xml version="1.0" standalone="no"?><!DOCTYPE svg PUBLIC "-//W3C//DTD SVG 1.1//EN" "http://www.w3.org/Graphics/SVG/1.1/DTD/svg11.dtd"><svg t="1707913129464" class="icon" viewBox="0 0 1024 1024" version="1.1" xmlns="http://www.w3.org/2000/svg" p-id="26216" xmlns:xlink="http://www.w3.org/1999/xlink" width="16" height="16"><path d="M894.72 963.584H130.304c-49.152 0-88.832-39.936-88.832-88.832v-550.4c0-49.152 39.936-88.832 88.832-88.832h764.416c49.152 0 88.832 39.936 88.832 88.832v550.4c0.256 48.896-39.68 88.832-88.832 88.832zM130.304 296.704c-15.104 0-27.392 12.288-27.392 27.392v550.4c0 15.104 12.288 27.392 27.392 27.392h764.416c15.104 0 27.392-12.288 27.392-27.392v-550.4c0-15.104-12.288-27.392-27.392-27.392H130.304z" fill="#040000" p-id="26217"></path><path d="M686.848 599.04m-38.4 0a38.4 38.4 0 1 0 76.8 0 38.4 38.4 0 1 0-76.8 0Z" fill="#040000" p-id="26218"></path><path d="M941.824 747.008H674.816c-81.408 0-147.712-66.304-147.712-147.712s66.304-147.712 147.712-147.712H924.16v61.44h-249.344c-47.616 0-86.272 38.656-86.272 86.272s38.656 86.272 86.272 86.272h267.008v61.44zM426.24 286.464l-33.536-51.456 257.024-167.68c42.752-27.904 100.864-16.128 129.536 25.856l103.168 151.552-50.688 34.56-103.168-151.552c-9.984-14.592-30.208-18.688-45.056-8.96l-257.28 167.68z" fill="#040000" p-id="26219"></path></svg>