<?xml version="1.0" standalone="no"?><!DOCTYPE svg PUBLIC "-//W3C//DTD SVG 1.1//EN" "http://www.w3.org/Graphics/SVG/1.1/DTD/svg11.dtd"><svg t="1707913028764" class="icon" viewBox="0 0 1024 1024" version="1.1" xmlns="http://www.w3.org/2000/svg" p-id="20441" xmlns:xlink="http://www.w3.org/1999/xlink" width="16" height="16"><path d="M0 0h1024v1024H0V0z" fill="#2C2C2C" fill-opacity=".01" p-id="20442"></path><path d="M824.7552 93.80864H239.33952c-37.632 0-68.16256 30.46912-68.16256 68.16256v713.35936c0 37.69344 30.47424 68.224 68.16256 68.224h585.47712c37.68832 0 68.224-30.53056 68.224-68.224V161.9712c-0.1024-37.65248-30.63296-68.12672-68.28544-68.16256zM510.35136 161.9712v198.84032l-8.25344-8.25344-31.5648-31.5648a23.2448 23.2448 0 0 0-32.77312 0l-42.00448 41.51808V161.9712h114.59584z m-182.81984 0v262.69696a33.664 33.664 0 0 0 33.74592 33.68448c22.03136 0 43.27936-8.6784 58.99264-24.2176l33.62816-33.3824 33.08032 33.08032a83.58912 83.58912 0 0 0 56.6272 24.51968h1.33632a33.6896 33.6896 0 0 0 33.6896-33.68448V161.9712h246.17984v591.36512H239.4624V161.9712h88.06912zM239.33952 875.33056v-53.7088h585.41568v53.77536H239.33952v-0.06656z" fill="#2C2C2C" p-id="20443"></path></svg>