<?xml version="1.0" standalone="no"?><!DOCTYPE svg PUBLIC "-//W3C//DTD SVG 1.1//EN" "http://www.w3.org/Graphics/SVG/1.1/DTD/svg11.dtd"><svg t="1708939032988" class="icon" viewBox="0 0 1024 1024" version="1.1" xmlns="http://www.w3.org/2000/svg" p-id="5605" xmlns:xlink="http://www.w3.org/1999/xlink" width="16" height="16"><path d="M928 96H96a96 96 0 0 0-96 96v640a96 96 0 0 0 96 96h832a96 96 0 0 0 96-96V192a96 96 0 0 0-96-96zM304 192a112 112 0 1 1 0 224 112 112 0 0 1 0-224zM960 864H64l149.024-192a64.032 64.032 0 0 1 90.496 0l70.976 113.952L640 480a64.032 64.032 0 0 1 90.496 0l212.256 325.504c15.872 15.872 21.568 37.984 17.248 58.496z" p-id="5606" fill="#ffffff"></path></svg>